<svg width="105" height="18" viewBox="0 0 105 18" fill="none" xmlns="http://www.w3.org/2000/svg">
<g clip-path="url(#clip0_142_819)">
<mask id="mask0_142_819" style="mask-type:luminance" maskUnits="userSpaceOnUse" x="0" y="0" width="105" height="18">
<path d="M105 0H0V18H105V0Z" fill="white"/>
</mask>
<g mask="url(#mask0_142_819)">
<path d="M102.279 8.59119V15.3214C100.832 15.779 99.214 15.9742 97.6992 15.9742C95.4253 15.9742 92.6015 15.8431 92.6015 12.5786C92.6015 10.1929 94.0488 9.80237 96.1136 9.50644L102.279 8.59119ZM98.1816 0.0335593C95.049 0.0335593 92.0515 0.72 90.9837 1.01288C90.8454 1.04644 90.5688 1.17763 90.6396 1.47051L90.9483 2.94102C91.0159 3.20339 91.1542 3.26746 91.4983 3.16983C92.9456 2.80983 95.2162 2.19051 97.8696 2.19051C99.3845 2.19051 100.349 2.32169 101.002 2.58102C102.208 3.00508 102.24 3.88678 102.24 4.93322V6.4678L96.0782 7.34949C92.5661 7.87119 89.7744 8.39593 89.7744 12.6092C89.7744 17.9024 94.6984 18 97.6606 18C99.4842 18 101.137 17.7376 102.138 17.5088C104.514 16.9871 104.997 16.4624 104.997 14.1773V4.80203C104.997 3.26746 104.961 1.73288 103.205 0.851186C102.205 0.329491 100.623 0.0335593 98.1784 0.0335593M80.4474 0C78.2442 0 74.7997 0.491186 73.0082 1.07695C71.2876 1.6322 71.2168 2.22102 71.2168 3.52678V17.0817C71.2168 17.3746 71.4226 17.5729 71.7346 17.5729H73.4553C73.7641 17.5729 73.9377 17.3776 73.9377 17.0817V3.00508C74.5938 2.80983 77.5206 2.08983 80.3766 2.08983C82.7888 2.08983 83.6475 2.84034 83.6475 4.99729V17.0847C83.6475 17.3776 83.8533 17.5759 84.1653 17.5759H85.8538C86.1626 17.5759 86.3716 17.3807 86.3716 17.0847V4.70441C86.3716 1.20814 84.5448 0 80.4474 0ZM59.5065 2.08983C64.4981 2.08983 64.7072 4.8661 64.7072 9.01525C64.7072 13.1644 64.5013 15.9071 59.5065 15.9071C54.5117 15.9071 54.3059 13.1308 54.3059 9.01525C54.3059 4.89966 54.5117 2.08983 59.5065 2.08983ZM59.5065 0C52.3086 0 51.4467 4.08203 51.4467 9.01525C51.4467 13.9485 52.3086 17.9969 59.5065 17.9969C66.7044 17.9969 67.5632 13.9149 67.5632 9.01525C67.5632 4.11559 66.7366 0 59.5065 0ZM41.9428 0C38.9131 0 34.9539 0.881695 34.9539 5.09492C34.9539 9.30814 39.2572 9.7017 40.9457 9.96102C43.6313 10.3515 45.8376 10.2539 45.8376 12.9661C45.8376 14.9583 44.1491 15.84 41.2223 15.84C38.2956 15.84 35.7805 14.9247 35.6776 14.8912C35.298 14.76 35.1951 14.9553 35.1276 15.1841L34.8188 16.4258C34.7159 16.7858 34.8864 16.8834 35.06 16.9475C35.5071 17.1122 38.1251 17.9939 41.1548 17.9939C45.1493 17.9939 48.5939 16.9475 48.5939 12.7007C48.5939 8.4539 45.2522 8.02983 42.155 7.63627C40.0195 7.3739 37.678 7.11458 37.678 4.89356C37.678 2.83424 39.7429 2.18136 42.2226 2.18136C44.2552 2.18136 46.8025 2.73661 47.2849 2.80068C47.5261 2.80068 47.629 2.73661 47.6644 2.5383L47.9056 1.0678C47.941 0.872542 47.8381 0.741356 47.5969 0.677288C47.2109 0.588814 44.9049 0 41.9428 0ZM25.7941 0C22.7612 0 18.802 0.881695 18.802 5.09492C18.802 9.30814 23.1053 9.7017 24.7939 9.96102C27.4794 10.3515 29.6825 10.2539 29.6825 12.9661C29.6825 14.9583 27.994 15.84 25.0672 15.84C22.1405 15.84 19.6254 14.9247 19.5225 14.8912C19.143 14.76 19.04 14.9553 18.9725 15.1841L18.6637 16.4258C18.5608 16.7858 18.7313 16.8834 18.905 16.9475C19.352 17.1122 21.97 17.9939 24.9997 17.9939C28.9942 17.9939 32.4388 16.9475 32.4388 12.7007C32.4388 8.4539 29.0972 8.02983 25.9999 7.63627C23.8644 7.3739 21.523 7.11458 21.523 4.89356C21.523 2.83424 23.591 2.18136 26.0675 2.18136C28.1001 2.18136 30.6474 2.73661 31.1298 2.80068C31.371 2.80068 31.4739 2.73661 31.5093 2.5383L31.7505 1.0678C31.7859 0.872542 31.6798 0.741356 31.4418 0.677288C31.0623 0.588814 28.753 0 25.7941 0ZM12.5015 8.59119V15.3214C11.0542 15.779 9.43639 15.9742 7.92155 15.9742C5.64769 15.9742 2.82384 15.8431 2.82384 12.5786C2.82384 10.1929 4.27114 9.80237 6.33596 9.50644L12.5015 8.59119ZM8.40399 0.0335593C5.26817 0.0335593 2.27387 0.72 1.20608 1.01288C1.06779 1.04644 0.794407 1.17763 0.861947 1.47051L1.1707 2.94102C1.23825 3.20339 1.37654 3.26746 1.72068 3.16983C3.16798 2.80983 5.43863 2.19051 8.09201 2.19051C9.60685 2.19051 10.5717 2.32169 11.2246 2.58102C12.4307 3.00508 12.4629 3.88678 12.4629 4.93322V6.4678L6.30058 7.34949C2.78846 7.87119 0 8.39593 0 12.6092C0 17.9024 4.92404 18 7.88618 18C9.70977 18 11.3629 17.7376 12.3632 17.5088C14.7399 16.9871 15.2224 16.4624 15.2224 14.1773V4.80203C15.2224 3.26746 15.187 1.73288 13.4309 0.851186C12.4307 0.326441 10.8483 0.0335593 8.40399 0.0335593Z" fill="black"/>
</g>
</g>
<defs>
<clipPath id="clip0_142_819">
<rect width="105" height="18" fill="white"/>
</clipPath>
</defs>
</svg>
