<svg width="24" height="24" viewBox="0 0 24 24" fill="none" xmlns="http://www.w3.org/2000/svg">
<rect width="24" height="24" rx="3" fill="#0D0F0D"/>
<path d="M15.8551 11.6684V16.9127C14.7141 17.2693 13.4388 17.4215 12.2447 17.4215C10.4521 17.4215 8.22607 17.3192 8.22607 14.7755C8.22607 12.9165 9.367 12.6122 10.9947 12.3816L15.8551 11.6684ZM12.625 5C10.153 5 7.79252 5.5349 6.95077 5.76312C6.84175 5.78927 6.62624 5.89149 6.67948 6.11971L6.92288 7.26558C6.97613 7.47003 7.08515 7.51995 7.35643 7.44388C8.49736 7.16336 10.2873 6.68076 12.379 6.68076C13.5732 6.68076 14.3338 6.78299 14.8485 6.98506C15.7993 7.3155 15.8246 8.00255 15.8246 8.81797V10.0138L10.9668 10.7008C8.19818 11.1073 6 11.5162 6 14.7993C6 18.9239 9.88168 19 12.2168 19C13.6543 19 14.9575 18.7955 15.746 18.6173C17.6197 18.2107 18 17.8018 18 16.0212V8.71574C18 7.51995 17.9721 6.32416 16.5878 5.63712C15.7993 5.22822 14.5519 5 12.625 5Z" fill="#EAF68F"/>
</svg>
